Coordinates
version=1
nRows=7
nColumns=40
inDegrees=yes
endheader
time	pelvis_tilt	pelvis_list	pelvis_rotation	pelvis_tx	pelvis_ty	pelvis_tz	hip_flexion_r	hip_adduction_r	hip_rotation_r	knee_angle_r	knee_angle_r_beta	ankle_angle_r	subtalar_angle_r	mtp_angle_r	hip_flexion_l	hip_adduction_l	hip_rotation_l	knee_angle_l	knee_angle_l_beta	ankle_angle_l	subtalar_angle_l	mtp_angle_l	lumbar_extension	lumbar_bending	lumbar_rotation	arm_flex_r	arm_add_r	arm_rot_r	elbow_flex_r	pro_sup_r	wrist_flex_r	wrist_dev_r	arm_flex_l	arm_add_l	arm_rot_l	elbow_flex_l	pro_sup_l	wrist_flex_l	wrist_dev_l
1760624938.97971511	     15.98977747	      2.95274171	      2.27934450	      0.18835919	      0.84969600	      0.00792345	     80.00000000	     -7.00000000	      0.00000000	     80.00000000	      1.39626340	      0.00000000	      0.00000000	      0.00000000	     80.00000000	     -7.00000000	      0.00000000	     80.00000000	      1.39626340	      0.00000000	      0.00000000	      0.00000000	    -20.67627412	     -8.87026308	    -16.07921659	     29.04803797	     13.49494629	     62.91950131	      0.00000000	      2.70239636	    -70.00000021	    -24.99999983	    -13.11815203	      2.24956862	    -38.50758513	    108.96812122	    179.99984796	      3.27808996	    -24.99999983
1760624938.98971510	     15.99028103	      2.95280092	      2.27947717	      0.18838205	      0.84968478	      0.00790739	     80.00000000	     -7.00000000	      0.00000000	     80.00000000	      1.39626340	      0.00000000	      0.00000000	      0.00000000	     80.00000000	     -7.00000000	      0.00000000	     80.00000000	      1.39626340	      0.00000000	      0.00000000	      0.00000000	    -20.67584129	     -8.87016360	    -16.07872582	     29.04924375	     13.49633519	     62.91952941	      0.00000000	      2.70250638	    -70.00000021	    -24.99999983	    -13.11790230	      2.25008624	    -38.50704563	    108.96816535	    179.99984796	      3.27808996	    -24.99999983
1760624938.99971509	     16.00082635	      2.95338427	      2.26760090	      0.18839254	      0.84965417	      0.00789121	     80.00000000	     -7.00000000	      0.00000000	     80.00000000	      1.39626340	      0.00000000	      0.00000000	      0.00000000	     80.00000000	     -7.00000000	      0.00000000	     80.00000000	      1.39626340	      0.00000000	      0.00000000	      0.00000000	    -20.66623184	     -8.86158657	    -16.07579036	     29.09464949	     13.53926353	     62.91908354	      0.00000000	      2.70692786	    -70.00000021	    -24.99999983	    -13.10647138	      2.27215607	    -38.48355529	    108.96441295	    179.99984796	      3.27808996	    -24.99999983
1760624939.00971508	     15.99936715	      2.95249247	      2.26691609	      0.18842401	      0.84961813	      0.00784165	     80.00000000	     -7.00000000	      0.00000000	     80.00000000	      1.39626340	      0.00000000	      0.00000000	      0.00000000	     80.00000000	     -7.00000000	      0.00000000	     80.00000000	      1.39626340	      0.00000000	      0.00000000	      0.00000000	    -20.66797031	     -8.86178113	    -16.07552896	     29.09529891	     13.54049981	     62.91894748	      0.00000000	      2.70697399	    -70.00000021	    -24.99999983	    -13.10636190	      2.27215981	    -38.48325781	    108.96394382	    179.99984796	      3.27808996	    -24.99999983
1760624939.01971507	     15.99863919	      2.95212899	      2.26660808	      0.18844065	      0.84960364	      0.00783770	     80.00000000	     -7.00000000	      0.00000000	     80.00000000	      1.39626340	      0.00000000	      0.00000000	      0.00000000	     80.00000000	     -7.00000000	      0.00000000	     80.00000000	      1.39626340	      0.00000000	      0.00000000	      0.00000000	    -20.66879313	     -8.86186571	    -16.07550888	     29.09603938	     13.54068317	     62.91890557	      0.00000000	      2.70703942	    -70.00000021	    -24.99999983	    -13.10624810	      2.27213567	    -38.48314149	    108.96363693	    179.99984796	      3.27808996	    -24.99999983
1760624939.02971506	     15.99792420	      2.95139889	      2.26642274	      0.18845799	      0.84959391	      0.00781882	     80.00000000	     -7.00000000	      0.00000000	     80.00000000	      1.39626340	      0.00000000	      0.00000000	      0.00000000	     80.00000000	     -7.00000000	      0.00000000	     80.00000000	      1.39626340	      0.00000000	      0.00000000	      0.00000000	    -20.66959051	     -8.86229280	    -16.07537098	     29.09706399	     13.54105615	     62.91888415	      0.00000000	      2.70711674	    -70.00000021	    -24.99999983	    -13.10612183	      2.27206013	    -38.48305886	    108.96324787	    179.99984796	      3.27808996	    -24.99999983
1760624939.03971505	     15.99740030	      2.95056912	      2.26637417	      0.18846630	      0.84958767	      0.00780269	     80.00000000	     -7.00000000	      0.00000000	     80.00000000	      1.39626340	      0.00000000	      0.00000000	      0.00000000	     80.00000000	     -7.00000000	      0.00000000	     80.00000000	      1.39626340	      0.00000000	      0.00000000	      0.00000000	    -20.67020846	     -8.86285969	    -16.07519109	     29.09829551	     13.54140981	     62.91887753	      0.00000000	      2.70720408	    -70.00000021	    -24.99999983	    -13.10599178	      2.27197180	    -38.48299695	    108.96280207	    179.99984796	      3.27808996	    -24.99999983
